<svg xmlns="http://www.w3.org/2000/svg" width="430" height="430" fill="none" viewBox="0 0 430 430"><path fill="#fff" d="m155 265-92.5-92.5 3.5 167zm122.5-2.5 84-84v165z"/><mask id="IPxzbDkfkia" width="369" height="380" x="31" y="12" maskUnits="userSpaceOnUse" style="mask-type:alpha"><path fill="#D9D9D9" fill-rule="evenodd" d="M399.348 12.642H31.695v379.263h367.653zM355 55H75l1.113 122.327 81.051 80.704 58.231-45.555 57.287 45.035L355 175.078z" clip-rule="evenodd"/></mask><g stroke="#121331" stroke-linejoin="round" stroke-width="12" mask="url(#IPxzbDkfkia)"><path d="M55 165h320v210H55zm0 0h320L242.454 39.91c-15.413-14.546-39.495-14.546-54.908 0z"/><path d="m55 356 104.027-91.024c32.047-28.041 79.899-28.041 111.946 0L375 356v19H55z"/><path stroke-linecap="round" d="m55 165 101.867 101.867M375 165 273.133 266.867"/></g><mask id="p8qXxd2pdSb" width="330" height="223" x="50" y="40" maskUnits="userSpaceOnUse" style="mask-type:alpha"><path fill="#D9D9D9" d="M268.891 262.627 370.757 160.76a6 6 0 0 1 8.486 0V40.266H50.757V160.76a6 6 0 0 1 8.486 0l101.866 101.867z"/></mask><g mask="url(#p8qXxd2pdSb)"><path stroke="#007bff" stroke-linecap="round" stroke-linejoin="round" stroke-width="12" d="M355 55H75v220h280z"/></g><path stroke="#007bff" stroke-linecap="round" stroke-width="12" d="M110 92h105m-105 31h210m-210 31h210m-210 31h210m-210 31h210"/><path stroke="#121331" stroke-linecap="round" stroke-linejoin="round" stroke-width="12" d="m54.997 164.996 101.866 101.867m218.134-101.867L273.13 266.863"/></svg>