<svg xmlns="http://www.w3.org/2000/svg" width="430" height="430" fill="none" viewBox="0 0 430 430"><g stroke-linejoin="round"><path stroke="#121331" stroke-width="12" d="M30 80h370v270H30z"/><path stroke="#121331" stroke-linecap="round" stroke-width="12" d="M90 130h95m-95 35h95m-95 35h95"/><path stroke="#121331" stroke-linecap="round" stroke-miterlimit="10" stroke-width="15" d="M60 130h.1m-.1 35h.1m-.1 35h.1"/><path stroke="#121331" stroke-linecap="round" stroke-width="12" d="M275 230h95m-95 35h95m-95 35h95"/><path stroke="#121331" stroke-linecap="round" stroke-miterlimit="10" stroke-width="15" d="M245 230h.1m-.1 35h.1m-.1 35h.1"/><path stroke="#007bff" stroke-linecap="round" stroke-miterlimit="10" stroke-width="12" d="m164.4 247-52.8 52.8L85 273.2"/><path stroke="#121331" stroke-width="12" d="M215 80v270"/><path stroke="#007bff" stroke-linecap="round" stroke-miterlimit="10" stroke-width="12" d="m335 185-55-55m0 55 55-55"/></g></svg>